# xmcd CD database file
#
# Track frame offsets:
#	150
#	22842
#	46445
#	68010
#	87860
#	107337
#	128285
#	150120
#	174985
#	195520
#	218107
#	234882
#
# Disc length: 3360 seconds
#
# Revision: 0
# Processed by: cddbd v1.4PL0 Copyright (c) Steve Scherf et al.
# Submitted via: Feurio! 1.64 - http://www.feurio.com
#
DISCID=7b0d1e0c
DTITLE=Emmylou Harris - Red Dirt Girl
DYEAR=1900
DGENRE=Country
TTITLE0=The Pearl
TTITLE1=Michelangelo
TTITLE2=I Don't Wanna Talk About It Now
TTITLE3=Tragedy
TTITLE4=Red Dirt Girl
TTITLE5=My Baby Needs A Shepherd
TTITLE6=Bang The Drum Slowly
TTITLE7=J'ai Fait Tout
TTITLE8=One Big Love
TTITLE9=Hour Of Gold
TTITLE10=My Antonia
TTITLE11=Boy From Tupelo
EXTD=
EXTT0=
EXTT1=
EXTT2=
EXTT3=
EXTT4=
EXTT5=
EXTT6=
EXTT7=
EXTT8=
EXTT9=
EXTT10=
EXTT11=
PLAYORDER=
